{
	"asset":{
		"version":"2.0",
		"generator":"Created using the official Cinema 4D glTF Exporter 1.000x284978"
	},
	"scenes":[{
		"nodes":[0,
		1,
		2,
		3,
		4,
		5,
		6,
		7,
		8,
		9,
		10,
		11,
		12,
		13,
		14]
	}],
	"nodes":[{
		"name":"Pyramid.8",
		"mesh":0,
		"scale":[1.0,
		1.0,
		1.0],
		"translation":[-157.6571807861328,
		365.8681945800781,
		-115.91030883789063],
		"rotation":[-0.024574102833867074,
		0.10428505390882492,
		0.2280413657426834,
		0.9677385091781616]
	},
	{
		"name":"Pyramid.7",
		"mesh":1,
		"scale":[1.0,
		1.0,
		1.0],
		"translation":[209.76658630371095,
		394.0570983886719,
		-114.53314971923828],
		"rotation":[0.0834818109869957,
		-0.08717367053031922,
		-0.243356853723526,
		0.9623975157737732]
	},
	{
		"name":"Torus.4",
		"mesh":2,
		"scale":[1.0,
		1.0,
		1.0],
		"translation":[0.0,
		-201.8291778564453,
		0.0],
		"rotation":[0.0,
		0.0,
		0.0,
		-1.0]
	},
	{
		"name":"Torus.3",
		"mesh":3,
		"scale":[1.0,
		1.0,
		1.0],
		"translation":[0.0,
		-125.78707122802735,
		0.0],
		"rotation":[0.0,
		0.0,
		0.0,
		-1.0]
	},
	{
		"name":"Torus.2",
		"mesh":4,
		"scale":[1.0,
		1.0,
		1.0],
		"translation":[0.0,
		106.07975006103516,
		0.0],
		"rotation":[0.0,
		0.0,
		0.0,
		-1.0]
	},
	{
		"name":"Torus.1",
		"mesh":5,
		"scale":[1.0,
		1.0,
		1.0],
		"translation":[0.0,
		-47.491973876953128,
		0.0],
		"rotation":[0.0,
		0.0,
		0.0,
		-1.0]
	},
	{
		"name":"Torus",
		"mesh":6,
		"scale":[1.0,
		1.0,
		1.0],
		"translation":[0.0,
		24.208450317382814,
		0.0],
		"rotation":[0.0,
		0.0,
		0.0,
		-1.0]
	},
	{
		"name":"Pyramid.6",
		"mesh":7,
		"scale":[1.0,
		1.0,
		1.0],
		"translation":[-100.56778717041016,
		357.6506042480469,
		188.9436492919922],
		"rotation":[0.12652906775474549,
		-0.07137076556682587,
		-0.010398151353001595,
		0.9893373847007752]
	},
	{
		"name":"Pyramid.5",
		"mesh":8,
		"scale":[1.0,
		1.0,
		1.0],
		"translation":[151.38766479492188,
		514.8106689453125,
		100.90231323242188],
		"rotation":[-0.0200150515884161,
		-0.18981751799583436,
		-0.10293445736169815,
		0.976203441619873]
	},
	{
		"name":"Cylinder",
		"mesh":9
	},
	{
		"name":"Pyramid.4",
		"mesh":10,
		"scale":[1.0,
		1.0,
		1.0],
		"translation":[154.67718505859376,
		362.800048828125,
		142.0806427001953],
		"rotation":[-0.0160259660333395,
		-0.061660684645175937,
		-0.2510373890399933,
		0.9658785462379456]
	},
	{
		"name":"Pyramid.3",
		"mesh":11,
		"scale":[1.0,
		1.0,
		1.0],
		"translation":[-163.1118621826172,
		370.4916687011719,
		129.0863494873047],
		"rotation":[-0.024574102833867074,
		0.10428505390882492,
		0.2280413657426834,
		0.9677385091781616]
	},
	{
		"name":"Pyramid.2",
		"mesh":12,
		"scale":[1.0,
		1.0,
		1.0],
		"translation":[167.90835571289063,
		555.7473754882813,
		0.0],
		"rotation":[0.0,
		0.0,
		0.02644282393157482,
		0.9996502995491028]
	},
	{
		"name":"Pyramid.1",
		"mesh":13,
		"scale":[1.0,
		1.0,
		1.0],
		"translation":[-137.6680145263672,
		539.5697631835938,
		0.0],
		"rotation":[0.0,
		0.0,
		0.04398784786462784,
		-0.9990320801734924]
	},
	{
		"name":"Pyramid",
		"mesh":14,
		"scale":[1.0,
		1.0,
		1.0],
		"translation":[0.0,
		440.2488708496094,
		0.0],
		"rotation":[0.0,
		0.0,
		0.0,
		-1.0]
	}],
	"meshes":[{
		"name":"Pyramid.8",
		"primitives":[{
			"indices":0,
			"attributes":{
				"POSITION":1,
				"NORMAL":2,
				"TEXCOORD_0":3
			},
			"material":0
		}]
	},
	{
		"name":"Pyramid.7",
		"primitives":[{
			"indices":4,
			"attributes":{
				"POSITION":5,
				"NORMAL":6,
				"TEXCOORD_0":7
			},
			"material":1
		}]
	},
	{
		"name":"Torus.4",
		"primitives":[{
			"indices":8,
			"attributes":{
				"POSITION":9,
				"NORMAL":10,
				"TEXCOORD_0":11
			},
			"material":2
		}]
	},
	{
		"name":"Torus.3",
		"primitives":[{
			"indices":12,
			"attributes":{
				"POSITION":13,
				"NORMAL":14,
				"TEXCOORD_0":15
			},
			"material":2
		}]
	},
	{
		"name":"Torus.2",
		"primitives":[{
			"indices":16,
			"attributes":{
				"POSITION":17,
				"NORMAL":18,
				"TEXCOORD_0":19
			},
			"material":3
		}]
	},
	{
		"name":"Torus.1",
		"primitives":[{
			"indices":20,
			"attributes":{
				"POSITION":21,
				"NORMAL":22,
				"TEXCOORD_0":23
			},
			"material":2
		}]
	},
	{
		"name":"Torus",
		"primitives":[{
			"indices":24,
			"attributes":{
				"POSITION":25,
				"NORMAL":26,
				"TEXCOORD_0":27
			},
			"material":2
		}]
	},
	{
		"name":"Pyramid.6",
		"primitives":[{
			"indices":28,
			"attributes":{
				"POSITION":29,
				"NORMAL":30,
				"TEXCOORD_0":31
			},
			"material":4
		}]
	},
	{
		"name":"Pyramid.5",
		"primitives":[{
			"indices":32,
			"attributes":{
				"POSITION":33,
				"NORMAL":34,
				"TEXCOORD_0":35
			},
			"material":4
		}]
	},
	{
		"name":"Cylinder",
		"primitives":[{
			"indices":36,
			"attributes":{
				"POSITION":37,
				"NORMAL":38,
				"TEXCOORD_0":39
			},
			"material":5
		}]
	},
	{
		"name":"Pyramid.4",
		"primitives":[{
			"indices":40,
			"attributes":{
				"POSITION":41,
				"NORMAL":42,
				"TEXCOORD_0":43
			},
			"material":4
		}]
	},
	{
		"name":"Pyramid.3",
		"primitives":[{
			"indices":44,
			"attributes":{
				"POSITION":45,
				"NORMAL":46,
				"TEXCOORD_0":47
			},
			"material":6
		}]
	},
	{
		"name":"Pyramid.2",
		"primitives":[{
			"indices":48,
			"attributes":{
				"POSITION":49,
				"NORMAL":50,
				"TEXCOORD_0":51
			},
			"material":6
		}]
	},
	{
		"name":"Pyramid.1",
		"primitives":[{
			"indices":52,
			"attributes":{
				"POSITION":53,
				"NORMAL":54,
				"TEXCOORD_0":55
			},
			"material":6
		}]
	},
	{
		"name":"Pyramid",
		"primitives":[{
			"indices":56,
			"attributes":{
				"POSITION":57,
				"NORMAL":58,
				"TEXCOORD_0":59
			},
			"material":6
		}]
	}],
	"accessors":[{
		"bufferView":0,
		"type":"SCALAR",
		"componentType":5123,
		"count":18,
		"byteOffset":0,
		"min":[0],
		"max":[15]
	},
	{
		"bufferView":1,
		"type":"VEC3",
		"componentType":5126,
		"count":16,
		"byteOffset":0,
		"min":[-150.0,
		-63.624610900878909,
		-100.0],
		"max":[150.0,
		63.624610900878909,
		100.0]
	},
	{
		"bufferView":1,
		"type":"VEC3",
		"componentType":5126,
		"count":16,
		"byteOffset":12,
		"min":[-0.6469097137451172,
		-1.0,
		-0.7862663269042969],
		"max":[0.6469097137451172,
		0.7625666260719299,
		0.7862663269042969]
	},
	{
		"bufferView":1,
		"type":"VEC2",
		"componentType":5126,
		"count":16,
		"byteOffset":24,
		"min":[0.0,
		0.0],
		"max":[1.0,
		1.0]
	},
	{
		"bufferView":2,
		"type":"SCALAR",
		"componentType":5123,
		"count":18,
		"byteOffset":0,
		"min":[0],
		"max":[15]
	},
	{
		"bufferView":3,
		"type":"VEC3",
		"componentType":5126,
		"count":16,
		"byteOffset":0,
		"min":[-150.0,
		-60.0,
		-100.0],
		"max":[150.0,
		60.0,
		100.0]
	},
	{
		"bufferView":3,
		"type":"VEC3",
		"componentType":5126,
		"count":16,
		"byteOffset":12,
		"min":[-0.6247026920318604,
		-1.0,
		-0.768234133720398],
		"max":[0.6247026920318604,
		0.7808627486228943,
		0.768234133720398]
	},
	{
		"bufferView":3,
		"type":"VEC2",
		"componentType":5126,
		"count":16,
		"byteOffset":24,
		"min":[0.0,
		0.0],
		"max":[1.0,
		1.0]
	},
	{
		"bufferView":4,
		"type":"SCALAR",
		"componentType":5123,
		"count":3168,
		"byteOffset":0,
		"min":[0],
		"max":[577]
	},
	{
		"bufferView":5,
		"type":"VEC3",
		"componentType":5126,
		"count":578,
		"byteOffset":0,
		"min":[-55.746429443359378,
		-6.0,
		-55.93656921386719],
		"max":[56.0,
		6.0,
		55.93656921386719]
	},
	{
		"bufferView":5,
		"type":"VEC3",
		"componentType":5126,
		"count":578,
		"byteOffset":12,
		"min":[-1.0,
		-0.9999802112579346,
		-0.9988682866096497],
		"max":[1.0,
		0.9999802112579346,
		0.9988682866096497]
	},
	{
		"bufferView":5,
		"type":"VEC2",
		"componentType":5126,
		"count":578,
		"byteOffset":24,
		"min":[0.0,
		0.0],
		"max":[1.0,
		1.0]
	},
	{
		"bufferView":6,
		"type":"SCALAR",
		"componentType":5123,
		"count":3168,
		"byteOffset":0,
		"min":[0],
		"max":[577]
	},
	{
		"bufferView":7,
		"type":"VEC3",
		"componentType":5126,
		"count":578,
		"byteOffset":0,
		"min":[-55.746429443359378,
		-6.0,
		-55.93656921386719],
		"max":[56.0,
		6.0,
		55.93656921386719]
	},
	{
		"bufferView":7,
		"type":"VEC3",
		"componentType":5126,
		"count":578,
		"byteOffset":12,
		"min":[-1.0,
		-0.9999802112579346,
		-0.9988682866096497],
		"max":[1.0,
		0.9999802112579346,
		0.9988682866096497]
	},
	{
		"bufferView":7,
		"type":"VEC2",
		"componentType":5126,
		"count":578,
		"byteOffset":24,
		"min":[0.0,
		0.0],
		"max":[1.0,
		1.0]
	},
	{
		"bufferView":8,
		"type":"SCALAR",
		"componentType":5123,
		"count":3168,
		"byteOffset":0,
		"min":[0],
		"max":[577]
	},
	{
		"bufferView":9,
		"type":"VEC3",
		"componentType":5126,
		"count":578,
		"byteOffset":0,
		"min":[-55.746429443359378,
		-6.0,
		-55.93656921386719],
		"max":[56.0,
		6.0,
		55.93656921386719]
	},
	{
		"bufferView":9,
		"type":"VEC3",
		"componentType":5126,
		"count":578,
		"byteOffset":12,
		"min":[-1.0,
		-0.9999802112579346,
		-0.9988682866096497],
		"max":[1.0,
		0.9999802112579346,
		0.9988682866096497]
	},
	{
		"bufferView":9,
		"type":"VEC2",
		"componentType":5126,
		"count":578,
		"byteOffset":24,
		"min":[0.0,
		0.0],
		"max":[1.0,
		1.0]
	},
	{
		"bufferView":10,
		"type":"SCALAR",
		"componentType":5123,
		"count":3168,
		"byteOffset":0,
		"min":[0],
		"max":[577]
	},
	{
		"bufferView":11,
		"type":"VEC3",
		"componentType":5126,
		"count":578,
		"byteOffset":0,
		"min":[-55.746429443359378,
		-6.0,
		-55.93656921386719],
		"max":[56.0,
		6.0,
		55.93656921386719]
	},
	{
		"bufferView":11,
		"type":"VEC3",
		"componentType":5126,
		"count":578,
		"byteOffset":12,
		"min":[-1.0,
		-0.9999802112579346,
		-0.9988682866096497],
		"max":[1.0,
		0.9999802112579346,
		0.9988682866096497]
	},
	{
		"bufferView":11,
		"type":"VEC2",
		"componentType":5126,
		"count":578,
		"byteOffset":24,
		"min":[0.0,
		0.0],
		"max":[1.0,
		1.0]
	},
	{
		"bufferView":12,
		"type":"SCALAR",
		"componentType":5123,
		"count":3168,
		"byteOffset":0,
		"min":[0],
		"max":[577]
	},
	{
		"bufferView":13,
		"type":"VEC3",
		"componentType":5126,
		"count":578,
		"byteOffset":0,
		"min":[-55.746429443359378,
		-6.0,
		-55.93656921386719],
		"max":[56.0,
		6.0,
		55.93656921386719]
	},
	{
		"bufferView":13,
		"type":"VEC3",
		"componentType":5126,
		"count":578,
		"byteOffset":12,
		"min":[-1.0,
		-0.9999802112579346,
		-0.9988682866096497],
		"max":[1.0,
		0.9999802112579346,
		0.9988682866096497]
	},
	{
		"bufferView":13,
		"type":"VEC2",
		"componentType":5126,
		"count":578,
		"byteOffset":24,
		"min":[0.0,
		0.0],
		"max":[1.0,
		1.0]
	},
	{
		"bufferView":14,
		"type":"SCALAR",
		"componentType":5123,
		"count":18,
		"byteOffset":0,
		"min":[0],
		"max":[15]
	},
	{
		"bufferView":15,
		"type":"VEC3",
		"componentType":5126,
		"count":16,
		"byteOffset":0,
		"min":[-77.71918487548828,
		-35.118743896484378,
		-62.17534637451172],
		"max":[77.71918487548828,
		35.118743896484378,
		62.17534637451172]
	},
	{
		"bufferView":15,
		"type":"VEC3",
		"componentType":5126,
		"count":16,
		"byteOffset":12,
		"min":[-0.6704844832420349,
		-1.0,
		-0.7487698793411255],
		"max":[0.6704844832420349,
		0.7419236302375794,
		0.7487698793411255]
	},
	{
		"bufferView":15,
		"type":"VEC2",
		"componentType":5126,
		"count":16,
		"byteOffset":24,
		"min":[0.0,
		0.0],
		"max":[1.0,
		1.0]
	},
	{
		"bufferView":16,
		"type":"SCALAR",
		"componentType":5123,
		"count":18,
		"byteOffset":0,
		"min":[0],
		"max":[15]
	},
	{
		"bufferView":17,
		"type":"VEC3",
		"componentType":5126,
		"count":16,
		"byteOffset":0,
		"min":[-77.71918487548828,
		-35.118743896484378,
		-62.17534637451172],
		"max":[77.71918487548828,
		35.118743896484378,
		62.17534637451172]
	},
	{
		"bufferView":17,
		"type":"VEC3",
		"componentType":5126,
		"count":16,
		"byteOffset":12,
		"min":[-0.6704844832420349,
		-1.0,
		-0.7487698793411255],
		"max":[0.6704844832420349,
		0.7419236302375794,
		0.7487698793411255]
	},
	{
		"bufferView":17,
		"type":"VEC2",
		"componentType":5126,
		"count":16,
		"byteOffset":24,
		"min":[0.0,
		0.0],
		"max":[1.0,
		1.0]
	},
	{
		"bufferView":18,
		"type":"SCALAR",
		"componentType":5123,
		"count":480,
		"byteOffset":0,
		"min":[0],
		"max":[118]
	},
	{
		"bufferView":19,
		"type":"VEC3",
		"componentType":5126,
		"count":119,
		"byteOffset":0,
		"min":[-50.0,
		-278.0,
		-50.0],
		"max":[50.0,
		278.0,
		50.0]
	},
	{
		"bufferView":19,
		"type":"VEC3",
		"componentType":5126,
		"count":119,
		"byteOffset":12,
		"min":[-1.0,
		-1.0,
		-1.0],
		"max":[1.0,
		1.0,
		1.0]
	},
	{
		"bufferView":19,
		"type":"VEC2",
		"componentType":5126,
		"count":119,
		"byteOffset":24,
		"min":[0.0,
		0.0],
		"max":[1.0,
		1.0]
	},
	{
		"bufferView":20,
		"type":"SCALAR",
		"componentType":5123,
		"count":18,
		"byteOffset":0,
		"min":[0],
		"max":[15]
	},
	{
		"bufferView":21,
		"type":"VEC3",
		"componentType":5126,
		"count":16,
		"byteOffset":0,
		"min":[-150.0,
		-60.0,
		-100.0],
		"max":[150.0,
		60.0,
		100.0]
	},
	{
		"bufferView":21,
		"type":"VEC3",
		"componentType":5126,
		"count":16,
		"byteOffset":12,
		"min":[-0.6247026920318604,
		-1.0,
		-0.768234133720398],
		"max":[0.6247026920318604,
		0.7808627486228943,
		0.768234133720398]
	},
	{
		"bufferView":21,
		"type":"VEC2",
		"componentType":5126,
		"count":16,
		"byteOffset":24,
		"min":[0.0,
		0.0],
		"max":[1.0,
		1.0]
	},
	{
		"bufferView":22,
		"type":"SCALAR",
		"componentType":5123,
		"count":18,
		"byteOffset":0,
		"min":[0],
		"max":[15]
	},
	{
		"bufferView":23,
		"type":"VEC3",
		"componentType":5126,
		"count":16,
		"byteOffset":0,
		"min":[-150.0,
		-63.624610900878909,
		-100.0],
		"max":[150.0,
		63.624610900878909,
		100.0]
	},
	{
		"bufferView":23,
		"type":"VEC3",
		"componentType":5126,
		"count":16,
		"byteOffset":12,
		"min":[-0.6469097137451172,
		-1.0,
		-0.7862663269042969],
		"max":[0.6469097137451172,
		0.7625666260719299,
		0.7862663269042969]
	},
	{
		"bufferView":23,
		"type":"VEC2",
		"componentType":5126,
		"count":16,
		"byteOffset":24,
		"min":[0.0,
		0.0],
		"max":[1.0,
		1.0]
	},
	{
		"bufferView":24,
		"type":"SCALAR",
		"componentType":5123,
		"count":18,
		"byteOffset":0,
		"min":[0],
		"max":[15]
	},
	{
		"bufferView":25,
		"type":"VEC3",
		"componentType":5126,
		"count":16,
		"byteOffset":0,
		"min":[-125.0,
		-60.0,
		-100.0],
		"max":[125.0,
		60.0,
		100.0]
	},
	{
		"bufferView":25,
		"type":"VEC3",
		"componentType":5126,
		"count":16,
		"byteOffset":12,
		"min":[-0.6925376653671265,
		-1.0,
		-0.768234133720398],
		"max":[0.6925376653671265,
		0.7213817238807678,
		0.768234133720398]
	},
	{
		"bufferView":25,
		"type":"VEC2",
		"componentType":5126,
		"count":16,
		"byteOffset":24,
		"min":[0.0,
		0.0],
		"max":[1.0,
		1.0]
	},
	{
		"bufferView":26,
		"type":"SCALAR",
		"componentType":5123,
		"count":18,
		"byteOffset":0,
		"min":[0],
		"max":[15]
	},
	{
		"bufferView":27,
		"type":"VEC3",
		"componentType":5126,
		"count":16,
		"byteOffset":0,
		"min":[-125.0,
		-60.0,
		-100.0],
		"max":[125.0,
		60.0,
		100.0]
	},
	{
		"bufferView":27,
		"type":"VEC3",
		"componentType":5126,
		"count":16,
		"byteOffset":12,
		"min":[-0.6925376653671265,
		-1.0,
		-0.768234133720398],
		"max":[0.6925376653671265,
		0.7213817238807678,
		0.768234133720398]
	},
	{
		"bufferView":27,
		"type":"VEC2",
		"componentType":5126,
		"count":16,
		"byteOffset":24,
		"min":[0.0,
		0.0],
		"max":[1.0,
		1.0]
	},
	{
		"bufferView":28,
		"type":"SCALAR",
		"componentType":5123,
		"count":18,
		"byteOffset":0,
		"min":[0],
		"max":[15]
	},
	{
		"bufferView":29,
		"type":"VEC3",
		"componentType":5126,
		"count":16,
		"byteOffset":0,
		"min":[-173.855712890625,
		-217.31964111328126,
		-173.855712890625],
		"max":[173.855712890625,
		217.31964111328126,
		173.855712890625]
	},
	{
		"bufferView":29,
		"type":"VEC3",
		"componentType":5126,
		"count":16,
		"byteOffset":12,
		"min":[-0.9284810423851013,
		-1.0,
		-0.9284810423851013],
		"max":[0.9284810423851013,
		0.37137991189956667,
		0.9284810423851013]
	},
	{
		"bufferView":29,
		"type":"VEC2",
		"componentType":5126,
		"count":16,
		"byteOffset":24,
		"min":[0.0,
		0.0],
		"max":[1.0,
		1.0]
	}],
	"bufferViews":[{
		"buffer":0,
		"byteOffset":0,
		"byteLength":36,
		"target":34963
	},
	{
		"buffer":0,
		"byteOffset":36,
		"byteLength":512,
		"target":34962,
		"byteStride":32
	},
	{
		"buffer":1,
		"byteOffset":0,
		"byteLength":36,
		"target":34963
	},
	{
		"buffer":1,
		"byteOffset":36,
		"byteLength":512,
		"target":34962,
		"byteStride":32
	},
	{
		"buffer":2,
		"byteOffset":0,
		"byteLength":6336,
		"target":34963
	},
	{
		"buffer":2,
		"byteOffset":6336,
		"byteLength":18496,
		"target":34962,
		"byteStride":32
	},
	{
		"buffer":3,
		"byteOffset":0,
		"byteLength":6336,
		"target":34963
	},
	{
		"buffer":3,
		"byteOffset":6336,
		"byteLength":18496,
		"target":34962,
		"byteStride":32
	},
	{
		"buffer":4,
		"byteOffset":0,
		"byteLength":6336,
		"target":34963
	},
	{
		"buffer":4,
		"byteOffset":6336,
		"byteLength":18496,
		"target":34962,
		"byteStride":32
	},
	{
		"buffer":5,
		"byteOffset":0,
		"byteLength":6336,
		"target":34963
	},
	{
		"buffer":5,
		"byteOffset":6336,
		"byteLength":18496,
		"target":34962,
		"byteStride":32
	},
	{
		"buffer":6,
		"byteOffset":0,
		"byteLength":6336,
		"target":34963
	},
	{
		"buffer":6,
		"byteOffset":6336,
		"byteLength":18496,
		"target":34962,
		"byteStride":32
	},
	{
		"buffer":7,
		"byteOffset":0,
		"byteLength":36,
		"target":34963
	},
	{
		"buffer":7,
		"byteOffset":36,
		"byteLength":512,
		"target":34962,
		"byteStride":32
	},
	{
		"buffer":8,
		"byteOffset":0,
		"byteLength":36,
		"target":34963
	},
	{
		"buffer":8,
		"byteOffset":36,
		"byteLength":512,
		"target":34962,
		"byteStride":32
	},
	{
		"buffer":9,
		"byteOffset":0,
		"byteLength":960,
		"target":34963
	},
	{
		"buffer":9,
		"byteOffset":960,
		"byteLength":3808,
		"target":34962,
		"byteStride":32
	},
	{
		"buffer":10,
		"byteOffset":0,
		"byteLength":36,
		"target":34963
	},
	{
		"buffer":10,
		"byteOffset":36,
		"byteLength":512,
		"target":34962,
		"byteStride":32
	},
	{
		"buffer":11,
		"byteOffset":0,
		"byteLength":36,
		"target":34963
	},
	{
		"buffer":11,
		"byteOffset":36,
		"byteLength":512,
		"target":34962,
		"byteStride":32
	},
	{
		"buffer":12,
		"byteOffset":0,
		"byteLength":36,
		"target":34963
	},
	{
		"buffer":12,
		"byteOffset":36,
		"byteLength":512,
		"target":34962,
		"byteStride":32
	},
	{
		"buffer":13,
		"byteOffset":0,
		"byteLength":36,
		"target":34963
	},
	{
		"buffer":13,
		"byteOffset":36,
		"byteLength":512,
		"target":34962,
		"byteStride":32
	},
	{
		"buffer":14,
		"byteOffset":0,
		"byteLength":36,
		"target":34963
	},
	{
		"buffer":14,
		"byteOffset":36,
		"byteLength":512,
		"target":34962,
		"byteStride":32
	}],
	"buffers":[{
		"uri":"data:application/octet-stream;base64,",
		"byteLength":548
	},
	{
		"uri":"data:application/octet-stream;base64,",
		"byteLength":548
	},
	{
		"uri":"data:application/octet-stream;base64,",
		"byteLength":24832
	},
	{
		"uri":"data:application/octet-stream;base64,",
		"byteLength":24832
	},
	{
		"uri":"data:application/octet-stream;base64,",
		"byteLength":24832
	},
	{
		"uri":"data:application/octet-stream;base64,",
		"byteLength":24832
	},
	{
		"uri":"data:application/octet-stream;base64,",
		"byteLength":24832
	},
	{
		"uri":"data:application/octet-stream;base64,",
		"byteLength":548
	},
	{
		"uri":"data:application/octet-stream;base64,",
		"byteLength":548
	},
	{
		"uri":"data:application/octet-stream;base64,",
		"byteLength":4768
	},
	{
		"uri":"data:application/octet-stream;base64,",
		"byteLength":548
	},
	{
		"uri":"data:application/octet-stream;base64,",
		"byteLength":548
	},
	{
		"uri":"data:application/octet-stream;base64,",
		"byteLength":548
	},
	{
		"uri":"data:application/octet-stream;base64,",
		"byteLength":548
	},
	{
		"uri":"data:application/octet-stream;base64,",
		"byteLength":548
	}],
	"materials":[{
		"pbrMetallicRoughness":{
			"baseColorFactor":[0.6601,
			0.8200000000000001,
			0.08199999999999999,
			1.0],
			"metallicFactor":0.0,
			"roughnessFactor":0.5
		},
		"emissiveFactor":[0.0,
		0.0,
		0.0],
		"alphaMode":"OPAQUE",
		"doubleSided":false,
		"name":"Mat.1"
	},
	{
		"pbrMetallicRoughness":{
			"baseColorFactor":[0.032999999999999977,
			0.55,
			0.21395000000000168,
			1.0],
			"metallicFactor":0.0,
			"roughnessFactor":0.5
		},
		"emissiveFactor":[0.0,
		0.0,
		0.0],
		"alphaMode":"OPAQUE",
		"doubleSided":false,
		"name":"Mat"
	},
	{
		"pbrMetallicRoughness":{
			"baseColorFactor":[0.09659999999999999,
			0.12,
			0.011999999999999997,
			1.0],
			"metallicFactor":0.0,
			"roughnessFactor":0.5
		},
		"emissiveFactor":[0.0,
		0.0,
		0.0],
		"alphaMode":"OPAQUE",
		"doubleSided":false,
		"name":"Mat.2"
	},
	{
		"pbrMetallicRoughness":{
			"baseColorFactor":[0.09659999999999999,
			0.12,
			0.011999999999999997,
			1.0],
			"metallicFactor":0.0,
			"roughnessFactor":0.5
		},
		"emissiveFactor":[0.0,
		0.0,
		0.0],
		"alphaMode":"OPAQUE",
		"doubleSided":false,
		"name":"Mat.2"
	},
	{
		"pbrMetallicRoughness":{
			"baseColorFactor":[0.6601,
			0.8200000000000001,
			0.08199999999999999,
			1.0],
			"metallicFactor":0.0,
			"roughnessFactor":0.5
		},
		"emissiveFactor":[0.0,
		0.0,
		0.0],
		"alphaMode":"OPAQUE",
		"doubleSided":false,
		"name":"Mat"
	},
	{
		"pbrMetallicRoughness":{
			"baseColorFactor":[0.71,
			0.44375,
			0.07099999999999998,
			1.0],
			"metallicFactor":0.0,
			"roughnessFactor":0.5
		},
		"emissiveFactor":[0.0,
		0.0,
		0.0],
		"alphaMode":"OPAQUE",
		"doubleSided":false,
		"name":"Mat"
	},
	{
		"pbrMetallicRoughness":{
			"baseColorFactor":[0.032999999999999977,
			0.55,
			0.21395000000000168,
			1.0],
			"metallicFactor":0.0,
			"roughnessFactor":0.5
		},
		"emissiveFactor":[0.0,
		0.0,
		0.0],
		"alphaMode":"OPAQUE",
		"doubleSided":false,
		"name":"Mat"
	}]
}