{
    "asset" : {
        "generator" : "Khronos glTF Blender I/O v3.4.50",
        "version" : "2.0"
    },
    "scene" : 0,
    "scenes" : [
        {
            "name" : "Scene",
            "nodes" : [
                11
            ]
        }
    ],
    "nodes" : [
        {
            "mesh" : 0,
            "name" : "Cube_0"
        },
        {
            "children" : [
                0
            ],
            "name" : "Cube",
            "rotation" : [
                0.07346853613853455,
                0,
                0,
                0.9972975850105286
            ],
            "scale" : [
                1,
                1.5091514587402344,
                0.9999952912330627
            ],
            "translation" : [
                0,
                0,
                1.299649953842163
            ]
        },
        {
            "mesh" : 1,
            "name" : "Cube.001_0"
        },
        {
            "children" : [
                2
            ],
            "name" : "Cube.001",
            "rotation" : [
                0.4725950360298157,
                0,
                0,
                0.881279706954956
            ],
            "scale" : [
                1,
                0.47841575741767883,
                0.9900774359703064
            ],
            "translation" : [
                0,
                3.019390106201172,
                1.4466899633407593
            ]
        },
        {
            "mesh" : 2,
            "name" : "Cube.003_0",
            "scale" : [
                1,
                2.5,
                1
            ]
        },
        {
            "children" : [
                4
            ],
            "name" : "Cube.003",
            "scale" : [
                0.03937999904155731,
                0.03937999904155731,
                0.25780999660491943
            ],
            "translation" : [
                -1.0054899454116821,
                2.4567599296569824,
                0.5044199824333191
            ]
        },
        {
            "mesh" : 3,
            "name" : "Cube.005_0",
            "scale" : [
                1,
                2.5,
                1
            ]
        },
        {
            "children" : [
                6
            ],
            "name" : "Cube.005",
            "scale" : [
                0.03937999904155731,
                0.03937999904155731,
                0.25780999660491943
            ],
            "translation" : [
                0.9727699756622314,
                -1.749169945716858,
                0.0026599999982863665
            ]
        },
        {
            "name" : "Lamp.001"
        },
        {
            "children" : [
                8
            ],
            "name" : "Lamp",
            "rotation" : [
                0.16907528042793274,
                0.2721708416938782,
                0.7558792233467102,
                0.570949375629425
            ],
            "scale" : [
                0.9999976754188538,
                0.9999959468841553,
                0.9999961256980896
            ],
            "translation" : [
                4.076250076293945,
                1.0054500102996826,
                5.903860092163086
            ]
        },
        {
            "children" : [
                1,
                3,
                5,
                7,
                9
            ],
            "name" : "Root"
        },
        {
            "children" : [
                10
            ],
            "name" : "Sketchfab_model",
            "rotation" : [
                -0.70710688829422,
                0,
                0,
                0.7071066498756409
            ]
        }
    ],
    "materials" : [
        {
            "doubleSided" : true,
            "name" : "Yellow",
            "pbrMetallicRoughness" : {
                "baseColorFactor" : [
                    0.8000000715255737,
                    0.31621813774108887,
                    0.06534023582935333,
                    1
                ],
                "metallicFactor" : 0,
                "roughnessFactor" : 0.5
            }
        },
        {
            "doubleSided" : true,
            "name" : "Material.001",
            "pbrMetallicRoughness" : {
                "baseColorFactor" : [
                    0.304987370967865,
                    0.07036001235246658,
                    0,
                    1
                ],
                "metallicFactor" : 0,
                "roughnessFactor" : 0.5
            }
        },
        {
            "doubleSided" : true,
            "name" : "Brown",
            "pbrMetallicRoughness" : {
                "baseColorFactor" : [
                    0.304987370967865,
                    0.07036001235246658,
                    0,
                    1
                ],
                "metallicFactor" : 0,
                "roughnessFactor" : 0.5
            }
        }
    ],
    "meshes" : [
        {
            "name" : "Cube_0",
            "primitives" : [
                {
                    "attributes" : {
                        "POSITION" : 0,
                        "TEXCOORD_0" : 1,
                        "NORMAL" : 2
                    },
                    "indices" : 3,
                    "material" : 0
                }
            ]
        },
        {
            "name" : "Cube.001_0",
            "primitives" : [
                {
                    "attributes" : {
                        "POSITION" : 4,
                        "TEXCOORD_0" : 5,
                        "NORMAL" : 6
                    },
                    "indices" : 7,
                    "material" : 0
                }
            ]
        },
        {
            "name" : "Cube.003_0",
            "primitives" : [
                {
                    "attributes" : {
                        "POSITION" : 8,
                        "NORMAL" : 9
                    },
                    "indices" : 10,
                    "material" : 1
                }
            ]
        },
        {
            "name" : "Cube.005_0",
            "primitives" : [
                {
                    "attributes" : {
                        "POSITION" : 11,
                        "NORMAL" : 12
                    },
                    "indices" : 10,
                    "material" : 2
                }
            ]
        }
    ],
    "accessors" : [
        {
            "bufferView" : 0,
            "componentType" : 5126,
            "count" : 136,
            "max" : [
                1.056130051612854,
                1.6306699514389038,
                -0.7329000234603882
            ],
            "min" : [
                -1.056130051612854,
                -1.3141100406646729,
                -0.9287899732589722
            ],
            "type" : "VEC3"
        },
        {
            "bufferView" : 1,
            "componentType" : 5126,
            "count" : 136,
            "type" : "VEC2"
        },
        {
            "bufferView" : 2,
            "componentType" : 5126,
            "count" : 136,
            "type" : "VEC3"
        },
        {
            "bufferView" : 3,
            "componentType" : 5123,
            "count" : 288,
            "type" : "SCALAR"
        },
        {
            "bufferView" : 4,
            "componentType" : 5126,
            "count" : 132,
            "max" : [
                1.056130051612854,
                1.6306300163269043,
                0.08536999672651291
            ],
            "min" : [
                -1.056130051612854,
                -1.6305099725723267,
                -0.07626000046730042
            ],
            "type" : "VEC3"
        },
        {
            "bufferView" : 5,
            "componentType" : 5126,
            "count" : 132,
            "type" : "VEC2"
        },
        {
            "bufferView" : 6,
            "componentType" : 5126,
            "count" : 132,
            "type" : "VEC3"
        },
        {
            "bufferView" : 7,
            "componentType" : 5123,
            "count" : 288,
            "type" : "SCALAR"
        },
        {
            "bufferView" : 8,
            "componentType" : 5126,
            "count" : 40,
            "max" : [
                50.245399475097656,
                1,
                1
            ],
            "min" : [
                -1,
                -1,
                -2.319200038909912
            ],
            "type" : "VEC3"
        },
        {
            "bufferView" : 9,
            "componentType" : 5126,
            "count" : 40,
            "type" : "VEC3"
        },
        {
            "bufferView" : 10,
            "componentType" : 5123,
            "count" : 60,
            "type" : "SCALAR"
        },
        {
            "bufferView" : 11,
            "componentType" : 5126,
            "count" : 40,
            "max" : [
                1,
                1,
                1
            ],
            "min" : [
                -50.245399475097656,
                -1,
                -1
            ],
            "type" : "VEC3"
        },
        {
            "bufferView" : 12,
            "componentType" : 5126,
            "count" : 40,
            "type" : "VEC3"
        }
    ],
    "bufferViews" : [
        {
            "buffer" : 0,
            "byteLength" : 1632,
            "byteOffset" : 0,
            "target" : 34962
        },
        {
            "buffer" : 0,
            "byteLength" : 1088,
            "byteOffset" : 1632,
            "target" : 34962
        },
        {
            "buffer" : 0,
            "byteLength" : 1632,
            "byteOffset" : 2720,
            "target" : 34962
        },
        {
            "buffer" : 0,
            "byteLength" : 576,
            "byteOffset" : 4352,
            "target" : 34963
        },
        {
            "buffer" : 0,
            "byteLength" : 1584,
            "byteOffset" : 4928,
            "target" : 34962
        },
        {
            "buffer" : 0,
            "byteLength" : 1056,
            "byteOffset" : 6512,
            "target" : 34962
        },
        {
            "buffer" : 0,
            "byteLength" : 1584,
            "byteOffset" : 7568,
            "target" : 34962
        },
        {
            "buffer" : 0,
            "byteLength" : 576,
            "byteOffset" : 9152,
            "target" : 34963
        },
        {
            "buffer" : 0,
            "byteLength" : 480,
            "byteOffset" : 9728,
            "target" : 34962
        },
        {
            "buffer" : 0,
            "byteLength" : 480,
            "byteOffset" : 10208,
            "target" : 34962
        },
        {
            "buffer" : 0,
            "byteLength" : 120,
            "byteOffset" : 10688,
            "target" : 34963
        },
        {
            "buffer" : 0,
            "byteLength" : 480,
            "byteOffset" : 10808,
            "target" : 34962
        },
        {
            "buffer" : 0,
            "byteLength" : 480,
            "byteOffset" : 11288,
            "target" : 34962
        }
    ],
    "buffers" : [
        {
            "byteLength" : 11768,
            "uri" : "data:application/octet-stream;base64,"
        }
    ]
}
